<svg width="41" height="42" viewBox="0 0 41 42" fill="none" xmlns="http://www.w3.org/2000/svg">
<rect width="41" height="42" rx="10" fill="#5F31B4"/>
<path fill-rule="evenodd" clip-rule="evenodd" d="M25.0002 17.0003C24.4473 17.0003 24.0002 17.4483 24.0002 18.0003V23.5863L15.7072 15.2932C15.3162 14.9022 14.6842 14.9022 14.2932 15.2932C13.9022 15.6842 13.9022 16.3162 14.2932 16.7072L22.5863 25.0002H17.0003C16.4473 25.0002 16.0003 25.4482 16.0003 26.0002C16.0003 26.5522 16.4473 27.0002 17.0003 27.0002H25.0002C25.5532 27.0002 26.0002 26.5522 26.0002 26.0002V18.0003C26.0002 17.4483 25.5532 17.0003 25.0002 17.0003Z" fill="white"/>
<mask id="mask0" mask-type="alpha" maskUnits="userSpaceOnUse" x="14" y="15" width="13" height="13">
<path fill-rule="evenodd" clip-rule="evenodd" d="M25.0002 17.0003C24.4473 17.0003 24.0002 17.4483 24.0002 18.0003V23.5863L15.7072 15.2932C15.3162 14.9022 14.6842 14.9022 14.2932 15.2932C13.9022 15.6842 13.9022 16.3162 14.2932 16.7072L22.5863 25.0002H17.0003C16.4473 25.0002 16.0003 25.4482 16.0003 26.0002C16.0003 26.5522 16.4473 27.0002 17.0003 27.0002H25.0002C25.5532 27.0002 26.0002 26.5522 26.0002 26.0002V18.0003C26.0002 17.4483 25.5532 17.0003 25.0002 17.0003Z" fill="white"/>
</mask>
<g mask="url(#mask0)">
<rect x="8" y="9" width="24" height="24" fill="white"/>
</g>
</svg>
