<svg width="41" height="42" viewBox="0 0 41 42" fill="none" xmlns="http://www.w3.org/2000/svg">
<rect width="41" height="42" rx="10" fill="#5F31B4"/>
<path fill-rule="evenodd" clip-rule="evenodd" d="M28 12C27.45 12 27 12.45 27 13V28C27 28.55 27.45 29 28 29C28.55 29 29 28.55 29 28V13C29 12.45 28.55 12 28 12ZM21 16C20.45 16 20 16.45 20 17V28C20 28.55 20.45 29 21 29C21.55 29 22 28.55 22 28V17C22 16.45 21.55 16 21 16ZM13 21C13 20.45 13.45 20 14 20C14.55 20 15 20.45 15 21V28C15 28.55 14.55 29 14 29C13.45 29 13 28.55 13 28V21Z" fill="white"/>
</svg>
