<svg width="41" height="42" viewBox="0 0 41 42" fill="none" xmlns="http://www.w3.org/2000/svg">
<rect width="41" height="42" rx="10" fill="#059669"/>
<path fill-rule="evenodd" clip-rule="evenodd" d="M14.9998 24.9997C15.5527 24.9997 15.9998 24.5517 15.9998 23.9997L15.9998 18.4137L24.2928 26.7067C24.6838 27.0977 25.3157 27.0977 25.7068 26.7067C26.0978 26.3158 26.0978 25.6838 25.7068 25.2927L17.4138 16.9997L22.9998 16.9997C23.5528 16.9997 23.9998 16.5518 23.9998 15.9997C23.9998 15.4477 23.5528 14.9997 22.9998 14.9997L14.9998 14.9997C14.4468 14.9997 13.9998 15.4477 13.9998 15.9997L13.9998 23.9997C13.9998 24.5517 14.4468 24.9997 14.9998 24.9997Z" fill="white"/>
<mask id="mask0" mask-type="alpha" maskUnits="userSpaceOnUse" x="14" y="15" width="13" height="13">
<path fill-rule="evenodd" clip-rule="evenodd" d="M14.9998 24.9997C15.5527 24.9997 15.9998 24.5517 15.9998 23.9997L15.9998 18.4137L24.2928 26.7067C24.6838 27.0977 25.3157 27.0977 25.7068 26.7067C26.0978 26.3158 26.0978 25.6838 25.7068 25.2927L17.4138 16.9997L22.9998 16.9997C23.5528 16.9997 23.9998 16.5518 23.9998 15.9997C23.9998 15.4477 23.5528 14.9997 22.9998 14.9997L14.9998 14.9997C14.4468 14.9997 13.9998 15.4477 13.9998 15.9997L13.9998 23.9997C13.9998 24.5517 14.4468 24.9997 14.9998 24.9997Z" fill="white"/>
</mask>
<g mask="url(#mask0)">
<rect x="32" y="33" width="24" height="24" transform="rotate(-180 32 33)" fill="white"/>
</g>
</svg>
